<svg xmlns="http://www.w3.org/2000/svg" viewBox="0 0 329.93 65.33"><path d="M66.5,73.59c0-7.51-2-9.9-7-9.9V62.18H88.44c23.82,0,35.13,15.83,35.13,32,0,15.66-9.9,30-34.37,30H59.5V122.3c5,0,7-2.17,7-9.9Zm8,36.64c0,9.68,2.63,12,8.4,12h6.41c15.44,0,24.69-10.9,24.69-27.86,0-14.9-7.51-30.14-27.19-30.14H74.5Z" transform="translate(-59.5 -60.33)" fill="#1d3138"/><path d="M173.5,100.18H172c-1.31-5-2.29-6-8.7-6H147.5v22.68c0,3,1.41,4.32,4.88,4.32h10.88c9.13,0,11.41-1,15.11-9h1.85l-2.83,12H132.5V122.3c5,0,7-1.52,7-9.78V73.59c0-7.72-2-9.9-7-9.9V62.18h45v10h-1.3c-1.42-7-3.59-7-10.44-7H147.5v26h17.72c4.24,0,5.87,0,6.74-6h1.54Z" transform="translate(-59.5 -60.33)" fill="#1d3138"/><path d="M261.5,63.69c-6,.11-7.58,3.8-7.15,9.68l3.29,38.38c.65,7.61,1.86,10,7.86,10.55v1.88h-23V122.3c5-.87,6.92-2.92,6.48-9.12l-3-40h-.22l-21.31,51h-1.64L202,73.18h-.22l-3.39,38.15c-.54,6.31,2.14,9.77,8.14,11v1.88h-20V122.3c7-.87,7.52-4.57,8.17-11.42L198.56,68c-2.38-2.61-4.06-3.81-8.06-4.35V62.18h15.82l19.9,49,20.22-49H261.5Z" transform="translate(-59.5 -60.33)" fill="#1d3138"/><path d="M386.5,75.18h-2.29c-1-9-7.5-12.65-13.8-12.65-6.53,0-11.2,3.68-11.2,9.44,0,11.53,15.87,14.62,24.79,23.53,4.35,4.35,5.43,8.29,5.43,12.42a17.73,17.73,0,0,1-17.72,17.74c-6.63,0-12.18-3.07-14.24-3.07-1.09,0-1.85.59-2.4,2.59H353.5v-17h1.57c.11,11,9.58,15.21,15,15.21,7.5,0,12.5-4.4,12.5-11.14,0-10.77-16.74-15.8-23.7-22.76a17.58,17.58,0,0,1-5.33-13.06c0-9.57,6.85-16.1,17-16.1,6.64,0,9.79,2.49,12.18,2.49,1,0,1.2-.64,1.64-1.64h2.17Z" transform="translate(-59.5 -60.33)" fill="#1d3138"/><path d="M307.77,124.1A30.94,30.94,0,1,1,338.7,93.17,31,31,0,0,1,307.77,124.1Zm0-55.7a24.76,24.76,0,1,0,24.75,24.77A24.8,24.8,0,0,0,307.77,68.4Z" transform="translate(-59.5 -60.33)" fill="#ee7156"/></svg>